<?xml version="1.0" encoding="UTF-8" standalone="no"?>
<!-- Created with Inkscape (http://www.inkscape.org/) -->
<svg
   xmlns:svg="http://www.w3.org/2000/svg"
   xmlns="http://www.w3.org/2000/svg"
   version="1.0"
   width="724.505"
   height="234.83125"
   id="Logo_REWE"
   xml:space="preserve"><defs
     id="defs5" /><path
     d="M 0,234.83124 L 724.505,234.83124 L 724.505,-2.5e-06 L 0,-2.5e-06 L 0,234.83124 z"
     id="Hintergrund"
     style="fill:#d22027;fill-opacity:1;fill-rule:nonzero;stroke:none" /><path
     d="M 489.86094,129.99233 L 490.38219,129.99233 L 506.30469,42.28521 C 508.13219,32.36771 512.30844,28.71271 523.79344,28.71271 L 539.97844,28.71271 C 548.59094,28.71271 553.29094,32.10646 553.29094,39.67646 C 553.29094,41.50396 553.02969,43.33021 552.50719,45.67896 L 517.26844,192.11733 C 514.91969,201.77558 511.78719,206.21308 499.51844,206.21308 L 480.20219,206.21308 C 469.23969,206.21308 466.10719,202.29708 463.75719,192.37858 L 441.56969,96.84146 L 441.04719,96.84146 L 418.85969,192.63984 C 416.51094,202.55833 413.37844,206.21308 402.41594,206.21308 L 383.09969,206.21308 C 370.83094,206.21308 367.69969,202.03683 365.34969,192.37858 L 330.10969,45.67896 C 329.58844,43.33021 329.32719,41.50396 329.32719,39.67646 C 329.32719,32.10646 334.02594,28.71271 342.63969,28.71271 L 361.95594,28.71271 C 373.44094,28.71271 377.61719,32.36771 379.44469,42.28521 L 395.36719,129.99233 L 395.88969,129.99233 L 416.24969,42.28521 C 418.59969,32.36771 422.77594,28.71271 433.73969,28.71271 L 451.75094,28.71271 C 462.71344,28.71271 466.88969,32.36771 469.23969,42.28521 L 489.86094,129.99233 L 489.86094,129.99233 z M 43.500437,206.21308 C 33.842312,206.21308 29.665563,202.03683 29.665563,192.37858 L 29.665563,42.80771 C 29.665563,32.88896 33.842312,28.71271 43.500437,28.71271 L 94.400937,28.71271 C 149.21719,28.71271 170.09969,49.59521 170.09969,84.83521 C 170.09969,106.23896 158.61344,124.25021 132.77219,133.12471 L 173.49219,189.24633 C 175.84219,192.63984 176.88594,195.24971 176.88594,197.59833 C 176.88594,203.34196 170.36094,206.21308 162.79094,206.21308 L 132.77219,206.21308 C 123.89719,206.21308 120.50344,202.55833 114.23881,192.63984 L 80.827187,139.12808 L 80.305188,139.12808 L 80.305188,192.37858 C 80.305188,202.03683 76.128438,206.21308 66.209937,206.21308 L 43.500437,206.21308 L 43.500437,206.21308 z M 583.30969,206.21308 C 573.65094,206.21308 569.99719,202.55833 569.99719,192.90008 L 569.99719,42.28521 C 569.99719,32.36771 573.65094,28.71271 583.30969,28.71271 L 673.36469,28.71271 C 683.28344,28.71271 686.93719,32.36771 686.93719,42.28521 L 686.93719,55.07646 C 686.93719,64.73396 683.28344,68.38896 673.36469,68.38896 L 621.67969,68.38896 L 621.67969,97.62521 L 665.53344,97.62521 C 675.45219,97.62521 679.10594,101.27896 679.10594,111.19846 L 679.10594,122.94496 C 679.10594,132.60221 675.45219,136.25708 665.53344,136.25708 L 621.67969,136.25708 L 621.67969,166.53634 L 681.19594,166.53634 C 691.11469,166.53634 694.76844,170.19108 694.76844,180.10958 L 694.76844,192.90008 C 694.76844,202.55833 691.11469,206.21308 681.19594,206.21308 L 583.30969,206.21308 L 583.30969,206.21308 z M 211.60344,206.21308 C 201.94594,206.21308 197.76844,202.03683 197.76844,192.37858 L 197.76844,42.80771 C 197.76844,32.88896 201.94594,28.71271 211.60344,28.71271 L 300.61469,28.71271 C 310.53344,28.71271 314.70969,32.88896 314.70969,42.80771 L 314.70969,54.55521 C 314.70969,64.21396 310.53344,68.38896 300.61469,68.38896 L 249.45219,68.38896 L 249.45219,97.62521 L 292.78344,97.62521 C 302.70219,97.62521 306.87844,101.80146 306.87844,111.72083 L 306.87844,122.42258 C 306.87844,132.08071 302.70219,136.25708 292.78344,136.25708 L 249.45219,136.25708 L 249.45219,166.53634 L 308.44469,166.53634 C 318.36469,166.53634 322.54094,170.71258 322.54094,180.63208 L 322.54094,192.37858 C 322.54094,202.03683 318.36469,206.21308 308.44469,206.21308 L 211.60344,206.21308 L 211.60344,206.21308 z M 94.923312,108.58896 C 110.32369,108.58896 116.84956,102.06271 116.84956,87.96646 C 116.84956,73.87146 110.32369,67.34646 94.923312,67.34646 L 80.305188,67.34646 L 80.305188,108.58896 L 94.923312,108.58896 L 94.923312,108.58896"
     id="REWE"
     style="fill:#ffffff;fill-opacity:1;fill-rule:nonzero;stroke:none" /></svg>